<svg width="1357" height="635" viewBox="0 0 1357 635" fill="none" xmlns="http://www.w3.org/2000/svg">
<ellipse cx="1093" cy="156" rx="162" ry="156" fill="#FF4242" fill-opacity="0.27"/>
<path d="M114.551 368.691C90.3127 345.35 59.0103 330.015 25.1474 324.891C-8.71564 319.767 -43.3937 325.119 -73.8981 340.176C-104.402 355.233 -129.161 379.22 -144.611 408.686C-160.061 438.152 -165.407 471.578 -159.88 504.155C-154.353 536.732 -138.237 566.781 -113.851 589.979C-89.4654 613.177 -58.0665 628.328 -24.1718 633.254C9.72301 638.179 44.3666 632.624 74.7751 617.388C105.184 602.152 129.79 578.02 145.053 548.464L0 479L114.551 368.691Z" fill="#FF4242" fill-opacity="0.27"/>
<ellipse cx="841" cy="429" rx="90" ry="36" fill="#FF4242" fill-opacity="0.27"/>
<ellipse cx="1267" cy="403" rx="90" ry="36" fill="#FF4242" fill-opacity="0.27"/>
</svg>
